<svg id="Calque_1" data-name="Calque 1" xmlns="http://www.w3.org/2000/svg" xmlns:xlink="http://www.w3.org/1999/xlink" viewBox="0 0 283.46 283.46"><defs><style>.cls-1{fill:none;}.cls-2{opacity:0.61;fill:url(#Dégradé_sans_nom_38);}.cls-3{fill:#339;}</style><radialGradient id="Dégradé_sans_nom_38" cx="144.16" cy="145.73" r="146.28" gradientUnits="userSpaceOnUse"><stop offset="0.01" stop-color="#3bb5d1"/><stop offset="0.96" stop-color="#3ddeed" stop-opacity="0"/><stop offset="0.98" stop-color="#3ddeed" stop-opacity="0"/></radialGradient></defs><title>Plan de travail 1</title><path class="cls-1" d="M126.89,28.11c-11.91,1.71-18.33,8.5-17.62,21.31C120.66,48.71,129.23,38.28,126.89,28.11Z"/><path class="cls-1" d="M101.45,210.65V108.22L28.92,180.74C49.4,199.35,73.5,209.41,101.45,210.65Z"/><path class="cls-1" d="M-6.7,102.42c.16,23.35,10.11,51.82,29.63,72.15l72.16-72.15Z"/><path class="cls-1" d="M109.23,210.37c18.58,2.59,57.14-13.32,72.1-29.49l-72.1-72.1Z"/><path class="cls-1" d="M115.31,102.36l72.36,72.36c18.45-20.32,28.52-44.39,29.81-72.36Z"/><path class="cls-1" d="M77.68,53.91c.43,11.25,8.85,19.26,18.9,18.13C96,60.33,89.43,54.23,77.68,53.91Z"/><rect class="cls-2" x="10.37" y="10.33" width="262.8" height="262.8" rx="60.96" ry="60.96"/><path class="cls-3" d="M147.58,142.21V104.94c8.73-1.49,16.7-4.24,21.49-12.27,4.65-7.81,4.66-16.28,3.08-25a37.74,37.74,0,0,0-12.94,1.54c-9,2.57-15.45,7.84-18.1,17.11a42.08,42.08,0,0,0-1.2,13.46c.09,2.4,0,4.82,0,7.23a26,26,0,0,0-9.79-9.65c-6.49-3.45-13.44-4-20.57-3.27a2,2,0,0,0-1.2,1.53,74.12,74.12,0,0,0,.4,9.55c1.6,11.83,8.41,19.16,20.11,21.52,3.54.71,7.21.75,10.86,1.11v14.52H24.09c-2,31.21,11.61,77.39,55.77,105.26a119.08,119.08,0,0,0,135.93-5.93c32.49-24.93,47.76-58.44,47.76-99.43ZM116,101.54c11.75.31,18.27,6.41,18.91,18.13C124.85,120.8,116.43,112.78,116,101.54ZM31.62,150H133.41L61.25,222.2C41.73,201.86,31.78,173.39,31.62,150ZM139.77,258.27c-28-1.24-52.05-11.29-72.52-29.9l72.52-72.53ZM165.21,75.73c2.34,10.17-6.23,20.61-17.62,21.32C146.89,84.23,153.3,77.45,165.21,75.73ZM147.55,258V156.4l72.1,72.1C204.69,244.67,166.14,260.58,147.55,258ZM226,222.34,153.63,150H255.8C254.51,178,244.44,202,226,222.34Z"/><path class="cls-3" d="M24.79,131.21c0-2.08,0-3.11.09-5.15l22.24,1c0,1.66-.07,2.5-.07,4.2ZM44.1,129a101.69,101.69,0,0,1,1.42-16.87l2.93.56a98,98,0,0,0-1.38,16.37Z"/><path class="cls-3" d="M50.51,103.67s-.42.51-1.23,1.59a6.46,6.46,0,0,1-3,2.26,7,7,0,0,1-4,.14l-1.75-.4a7.38,7.38,0,0,1-3.74-2A6.82,6.82,0,0,1,35,101.58a11.74,11.74,0,0,1,.36-5.08,8.73,8.73,0,0,1,2.25-4.08,5.94,5.94,0,0,1,3.61-1.66,9.66,9.66,0,0,1,4.55.79l1,.39a87.31,87.31,0,0,0-3.66,12.89l-2.45-.63a91.59,91.59,0,0,1,2.57-9.66,4.36,4.36,0,0,0-3.26.22,3.91,3.91,0,0,0-1.88,2.6,5.27,5.27,0,0,0,.21,3.9,4.34,4.34,0,0,0,2.9,2.13l2,.52a3.67,3.67,0,0,0,3.24-.47,5.67,5.67,0,0,0,1.92-3.2,7.6,7.6,0,0,0,.26-2.3,7.8,7.8,0,0,0-.42-2.27c1.08-.66,1.62-1,2.71-1.57a11.82,11.82,0,0,1,.68,3.55,11,11,0,0,1-.38,3.51C50.71,102.82,50.51,103.67,50.51,103.67Z"/><path class="cls-3" d="M56.89,85.75s-.28.36-.83,1.1a12.76,12.76,0,0,1-1.79,2,11.67,11.67,0,0,1-2.12,1.51c-.53-1.17-.79-1.76-1.29-3a14,14,0,0,0,2.53-2A9.68,9.68,0,0,0,55.06,83,7.23,7.23,0,0,0,56,80a2,2,0,0,0-1-1.79,1.26,1.26,0,0,0-1.29-.09,3.19,3.19,0,0,0-1.13,1,23.8,23.8,0,0,0-1.34,2.08l-.14.27-.15.26s-.05.09-.07.13a.54.54,0,0,0-.07.13,19.84,19.84,0,0,1-1.72,2.6,4.34,4.34,0,0,1-2,1.45,3.59,3.59,0,0,1-2.71-.28,4.51,4.51,0,0,1-2.25-2,5.27,5.27,0,0,1-.49-3.14A12.62,12.62,0,0,1,43,76.42a15.62,15.62,0,0,1,1.58-2.56,13.57,13.57,0,0,1,1.9-2,12.73,12.73,0,0,1,2.22-1.5c.31,1.29.47,1.93.82,3.2a11.83,11.83,0,0,0-2.39,1.92,9.38,9.38,0,0,0-1.63,2.3,6.28,6.28,0,0,0-.8,2.94,1.83,1.83,0,0,0,1.07,1.63,1,1,0,0,0,1.11-.07,3.48,3.48,0,0,0,1-1.06c.31-.47.71-1.15,1.21-2l.12-.2a1.13,1.13,0,0,1,.12-.21l.05-.1.07-.09a15.71,15.71,0,0,1,2-2.76,4.28,4.28,0,0,1,2.3-1.3,4.11,4.11,0,0,1,3,.77,5,5,0,0,1,2,2.23,5.18,5.18,0,0,1,.27,3,14.11,14.11,0,0,1-1.38,3.87C57.11,85.28,56.89,85.75,56.89,85.75Z"/><path class="cls-3" d="M53.64,59.79c.93-1.21,1.4-1.8,2.36-3L68.44,67.18c-.84,1-1.24,1.51-2,2.55Zm8.25-5.06a4.7,4.7,0,0,0-1.34,1.09,3.79,3.79,0,0,0-1.14,2.59,2.86,2.86,0,0,0,1.16,2.21l-2.64-1.7a6,6,0,0,1-.27-3.18,5.78,5.78,0,0,1,1.46-2.85A7.68,7.68,0,0,1,61,51.38a5.23,5.23,0,0,1,2-.66c.12,1.47.19,2.2.36,3.66A3,3,0,0,0,61.89,54.73Z"/><path class="cls-3" d="M75.5,58.24a4.76,4.76,0,0,1-3.74-1.65A4.23,4.23,0,0,1,70.31,53a6.59,6.59,0,0,1,2.54-3.88c1.54-1.31,2.33-1.94,3.93-3.17l1.78,1.85c-1.63,1.24-2.44,1.89-4,3.23a2.88,2.88,0,0,0-1.13,1.72,2.05,2.05,0,0,0,.65,1.68,2.14,2.14,0,0,0,1.87.77A4.75,4.75,0,0,0,78.28,54a8.16,8.16,0,0,0,1.92-2.06,1.27,1.27,0,0,0,0-1.51L81.86,52a3.86,3.86,0,0,1-.16,1.48A4.64,4.64,0,0,1,81,54.83a7.43,7.43,0,0,1-1.27,1.32A7.65,7.65,0,0,1,75.5,58.24Zm.72-12.72a3.22,3.22,0,0,0-2.3-1.33,3.81,3.81,0,0,0-2.69,1,7.38,7.38,0,0,0-1.45,1.61,6.51,6.51,0,0,0-.85,1.85c-1.21.24-1.82.36-3,.64a6.48,6.48,0,0,1,.89-3.15,10.4,10.4,0,0,1,2.54-3,9.4,9.4,0,0,1,3.58-2,5.33,5.33,0,0,1,3.27.11,6,6,0,0,1,2.64,2.09l6.26,8.27c-1,.7-1.46,1.06-2.42,1.8Z"/><path class="cls-3" d="M92.86,46.93s-.6,0-1.79.1a6.21,6.21,0,0,1-3.38-.71,8.07,8.07,0,0,1-2.87-2.66l-1.51-2.19A6.9,6.9,0,0,1,82,37.89a5.49,5.49,0,0,1,1-3.41,9.5,9.5,0,0,1,3.36-2.87,11.16,11.16,0,0,1,2.58-1,8.31,8.31,0,0,1,2.48-.27,5.9,5.9,0,0,1,2.17.5c-.57,1.17-.84,1.76-1.36,2.93A5.33,5.33,0,0,0,90,33.51a5.65,5.65,0,0,0-2.11.66,4.36,4.36,0,0,0-2.26,2.46,3.56,3.56,0,0,0,.59,3l1.44,2.23a4.17,4.17,0,0,0,2.49,2,4.27,4.27,0,0,0,3.1-.57,4.52,4.52,0,0,0,1.52-1.33,4.65,4.65,0,0,0,.85-1.86c1.27.35,1.9.53,3.15.91a5.73,5.73,0,0,1-.73,1.87,7.08,7.08,0,0,1-1.37,1.66,10.57,10.57,0,0,1-1.93,1.36C93.49,46.56,92.86,46.93,92.86,46.93Z"/><path class="cls-3" d="M93.46,21.24c1.42-.62,2.14-.92,3.59-1.49l1.25,2.89c-1.41.56-2.11.85-3.5,1.45Zm2.73,5.81c1.36-.58,2-.86,3.41-1.4,2.54,5.88,3.81,8.82,6.36,14.7-1.18.46-1.77.7-2.93,1.2C100.3,35.75,98.93,32.85,96.19,27.05Z"/><path class="cls-3" d="M104.85,23.72c1.39-.48,2.09-.71,3.5-1.14,2.06,6.05,3.09,9.08,5.14,15.13-1.21.37-1.81.57-3,1Zm12.55,2.91a3.42,3.42,0,0,0-1.64-2.29,4,4,0,0,0-3-.18,3.85,3.85,0,0,0-2.37,1.53,2.74,2.74,0,0,0-.17,2.44c-.53-1.12-.8-1.68-1.34-2.8a5.48,5.48,0,0,1,1.43-2.76A5.82,5.82,0,0,1,113.08,21a6.14,6.14,0,0,1,5,.53,6.63,6.63,0,0,1,2.7,4.33c.88,3.77,1.31,5.65,2.19,9.42-1.25.26-1.87.4-3.1.69C118.89,32.23,118.39,30.36,117.4,26.63Z"/><path class="cls-3" d="M132.11,34s-.56-.22-1.7-.62a6.2,6.2,0,0,1-2.84-2A8.26,8.26,0,0,1,126,27.68l-.33-1.76a8,8,0,0,1,.16-4.11,5.58,5.58,0,0,1,2.22-2.9,8.86,8.86,0,0,1,4.12-1.38,7.34,7.34,0,0,1,4.1.65A6.1,6.1,0,0,1,139,20.9a10.78,10.78,0,0,1,1.07,4.47l0,1a98.25,98.25,0,0,0-11.61,1.09l-.4-2.48c3.42-.5,5.14-.68,8.59-.93a4.91,4.91,0,0,0-1.4-2.92,3.39,3.39,0,0,0-2.77-.83,4,4,0,0,0-3,1.51,4.48,4.48,0,0,0-.6,3.41l.31,2a4.14,4.14,0,0,0,1.55,2.85,4.57,4.57,0,0,0,3.23.7,5.68,5.68,0,0,0,1.93-.56,6.08,6.08,0,0,0,1.67-1.2c.93.76,1.39,1.14,2.29,1.92a9.77,9.77,0,0,1-2.62,1.92,8.41,8.41,0,0,1-2.94.87C132.85,33.91,132.11,34,132.11,34Z"/><path class="cls-3" d="M149.09,33.28,147.85,33a11.11,11.11,0,0,1-2.35-.85,10.4,10.4,0,0,1-2.06-1.37c.75-.92,1.14-1.38,1.93-2.29a13.06,13.06,0,0,0,2.69,1.5,8,8,0,0,0,2.61.58,6.15,6.15,0,0,0,3-.39,1.92,1.92,0,0,0,1.13-1.64,1.26,1.26,0,0,0-.44-1.19,3.12,3.12,0,0,0-1.31-.61,22,22,0,0,0-2.29-.36l-.28,0-.28,0H150l-.14,0a16.32,16.32,0,0,1-2.84-.52,4.2,4.2,0,0,1-2-1.25,3.88,3.88,0,0,1-.81-2.58A4.66,4.66,0,0,1,145,19.1a4.74,4.74,0,0,1,2.42-1.66,11.52,11.52,0,0,1,4.07-.42,15.27,15.27,0,0,1,2.78.39,12.91,12.91,0,0,1,2.47.89A12,12,0,0,1,159,19.66c-1,.81-1.47,1.22-2.42,2.05A11.52,11.52,0,0,0,154,20.35a8.86,8.86,0,0,0-2.58-.53,5.27,5.27,0,0,0-2.78.44,1.74,1.74,0,0,0-1,1.6,1.06,1.06,0,0,0,.49,1,3.13,3.13,0,0,0,1.26.46c.51.09,1.25.18,2.19.28a.76.76,0,0,0,.21,0l.23,0h.11l.09,0a14.76,14.76,0,0,1,3.13.67,4,4,0,0,1,2,1.53,4.12,4.12,0,0,1,.52,2.95,5,5,0,0,1-1.11,2.74A4.85,4.85,0,0,1,154.35,33a12,12,0,0,1-3.83.32Z"/><path class="cls-3" d="M168.87,35.05a4.9,4.9,0,0,1-1.39-2.56,8.25,8.25,0,0,1,.08-3.55l.75-3.43a7.73,7.73,0,0,1,1.46-3.29,5,5,0,0,1,2.6-1.72,6.86,6.86,0,0,1,3.51,0A5.92,5.92,0,0,1,178.61,22a5.35,5.35,0,0,1,1.5,2.58c-.55,1.2-.82,1.8-1.36,3a3.31,3.31,0,0,0,.13-1.77,2.51,2.51,0,0,0-.84-1.38,4.49,4.49,0,0,0-1.78-.87,3.4,3.4,0,0,0-4.54,2.7l-.85,3.36a3.68,3.68,0,0,0,.22,2.8A3.26,3.26,0,0,0,173.28,34a3.81,3.81,0,0,0,1.82.09,2.83,2.83,0,0,0,1.41-.78,3.82,3.82,0,0,0,.92-1.58c-.33,1.31-.49,2-.82,3.27a5.06,5.06,0,0,1-2.14,1.46,4.79,4.79,0,0,1-2.84.07A5.82,5.82,0,0,1,168.87,35.05ZM182.5,16c1.49.44,2.24.66,3.72,1.14l-7.57,21.08c-1.2-.39-1.81-.58-3-.93C178.37,28.76,179.75,24.5,182.5,16Z"/><path class="cls-3" d="M188.74,35.25a3.47,3.47,0,0,0-.25,2.71,3.31,3.31,0,0,0,1.9,1.84,3.72,3.72,0,0,0,2.62.32,3.17,3.17,0,0,0,1.9-1.67l-1.39,3.06a5.11,5.11,0,0,1-2.4,1,5,5,0,0,1-2.86-.42A5.23,5.23,0,0,1,185.14,39a7.1,7.1,0,0,1,.46-5c1.5-3.6,2.24-5.4,3.73-9,1.38.52,2.07.79,3.43,1.35Zm10.95-5.74c1.31.65,2,1,3.25,1.67-3.21,5.57-4.81,8.36-8,13.93-1.11-.59-1.67-.88-2.8-1.44Z"/><path class="cls-3" d="M207,53.1s-.27-.33-.83-1a10.63,10.63,0,0,1-1.41-2,10.38,10.38,0,0,1-.88-2.27c1.18-.34,1.77-.5,3-.8a12.49,12.49,0,0,0,1.31,2.77,7.89,7.89,0,0,0,1.79,2,6.23,6.23,0,0,0,2.64,1.38,2,2,0,0,0,1.91-.69,1.31,1.31,0,0,0,.35-1.23,3.1,3.1,0,0,0-.71-1.26c-.37-.41-.91-1-1.65-1.62l-.22-.18-.21-.19-.1-.08a.43.43,0,0,0-.1-.09,17.21,17.21,0,0,1-2-2.06,3.92,3.92,0,0,1-.86-2.13,3.87,3.87,0,0,1,.88-2.58,4.45,4.45,0,0,1,5.29-1.85,11.29,11.29,0,0,1,3.58,2,14.49,14.49,0,0,1,2,1.93,12.88,12.88,0,0,1,1.49,2.17,11.43,11.43,0,0,1,.95,2.4c-1.29.08-1.92.14-3.2.26a11.42,11.42,0,0,0-1.29-2.62,8.3,8.3,0,0,0-1.79-1.93,5.22,5.22,0,0,0-2.54-1.24,1.83,1.83,0,0,0-1.74.78,1,1,0,0,0-.19,1.07,3.15,3.15,0,0,0,.76,1.11c.37.37.91.86,1.62,1.49l.16.14a1.22,1.22,0,0,1,.17.15l.08.07.07.07a14.42,14.42,0,0,1,2.16,2.36,4.07,4.07,0,0,1,.74,2.45,4.25,4.25,0,0,1-1.35,2.72,5.17,5.17,0,0,1-2.54,1.6,5,5,0,0,1-2.88-.22,12.14,12.14,0,0,1-3.31-2C207.4,53.38,207,53.1,207,53.1Z"/><path class="cls-3" d="M217.68,60.78a4.64,4.64,0,0,1,1.59-3.73,4.32,4.32,0,0,1,3.6-1.5,6.71,6.71,0,0,1,4,2.47c1.37,1.52,2,2.31,3.34,3.91l-1.83,1.81c-1.32-1.65-2-2.45-3.4-4a3.05,3.05,0,0,0-1.78-1.11,2.43,2.43,0,0,0-2.43,2.55,4.83,4.83,0,0,0,1.31,2.32,8.69,8.69,0,0,0,2.15,1.91,1.31,1.31,0,0,0,1.54,0l-1.55,1.71a3.82,3.82,0,0,1-1.51-.15,4.85,4.85,0,0,1-1.42-.71A8,8,0,0,1,219.9,65,7.68,7.68,0,0,1,217.68,60.78Zm12.95.6a3.14,3.14,0,0,0,1.29-2.33,3.91,3.91,0,0,0-1.14-2.69,7.41,7.41,0,0,0-1.68-1.43,6.5,6.5,0,0,0-1.89-.82c-.27-1.2-.41-1.8-.72-3a6.69,6.69,0,0,1,3.21.82,10.61,10.61,0,0,1,3.12,2.5,9.74,9.74,0,0,1,2.1,3.58,5.34,5.34,0,0,1,0,3.31A5.75,5.75,0,0,1,232.85,64l-8.24,6.33c-.75-1-1.14-1.48-1.92-2.45Z"/><path class="cls-3" d="M246.47,74.78c.77,1.46,1.14,2.21,1.85,3.72A111.56,111.56,0,0,0,231,80.05c-.5-.89-.76-1.32-1.28-2.19a131.92,131.92,0,0,0,9.62-14.81c.92,1.3,1.37,2,2.25,3.32-2.78,4.2-4.24,6.23-7.29,10.16A122.9,122.9,0,0,1,246.47,74.78Z"/><path class="cls-3" d="M236.87,91a6.45,6.45,0,0,1,1.2-3.36,8,8,0,0,1,3.07-2.46l2.36-1.13a6.75,6.75,0,0,1,3.77-.73,5.6,5.6,0,0,1,3.26,1.69,10.64,10.64,0,0,1,2.37,4,11.57,11.57,0,0,1,.7,4.78,6.51,6.51,0,0,1-1.42,3.63,6.72,6.72,0,0,1-3.3,2.09l-2.53.77a7,7,0,0,1-3.82.19,6.06,6.06,0,0,1-3-1.83A11.61,11.61,0,0,1,236.87,91Zm5.35,5.49a3.75,3.75,0,0,0,3.06.08l2.51-.87a3.75,3.75,0,0,0,2.39-2.06,4.77,4.77,0,0,0-.08-3.48A4.35,4.35,0,0,0,248,87.53a3.48,3.48,0,0,0-3.06.1l-2.45,1.06a4.07,4.07,0,0,0-2.28,2.15,4.3,4.3,0,0,0,.06,3.19A4.23,4.23,0,0,0,242.22,96.53Z"/><path class="cls-3" d="M262.88,102.11c.38,1.82.55,2.74.87,4.6l-3.07.63c-.31-1.81-.48-2.7-.85-4.47Zm-6.21,1.54c.35,1.72.52,2.59.82,4.35l-15.63,3.23c-.25-1.51-.4-2.26-.7-3.74Z"/><path class="cls-3" d="M258.47,114.82c.21,1.82.3,2.75.45,4.62l-15.82,1.64c-.13-1.61-.21-2.41-.39-4Zm-2.15,11.71a7.92,7.92,0,0,0,.17-2.19,5.68,5.68,0,0,0-1-3.34,2.5,2.5,0,0,0-2.35-1l3-.78a6.66,6.66,0,0,1,2.41,2.6,8.9,8.9,0,0,1,1,3.87,12.43,12.43,0,0,1-.24,3.07,7.9,7.9,0,0,1-.9,2.41c-1.11-1.27-1.66-1.89-2.79-3.08A4.14,4.14,0,0,0,256.32,126.53Z"/></svg>